#!OML:ASF I:\salsa\salsa 7_09\Patient 1\Session 1\dancerfemale.ASF
:FULLY-SPECIFIED
:DEGREES
1706
root -0.102635 16.2613 0.14851 369.124 355.533 357.851
lowerback 4.16862 2.21611 5.64315
upperback -6.58877 3.43712 -0.519345
thorax -8.96634 1.2743 -4.10875
lowerneck 4.44413 2.2441 -3.66319
upperneck 1.82479 2.82041 6.65412
head -0.351896 1.35311 2.69654
rclavicle 5.61761e-014 1.15544e-014
rhumerus -62.1106 -22.3872 -1.38846
rradius 41.5151
rwrist -18.4203
rhand -2.85561 48.7671
rfingers 7.12502
rthumb 22.8525 20.1011
lclavicle 5.61761e-014 1.15544e-014
lhumerus -38.8573 -20.3579 96.2997
lradius 142.656
lwrist 13.4914
lhand -5.57014 23.4619
lfingers 7.12502
lthumb 20.2455 52.4268
rfemur -16.5889 6.82673 18.8587
rtibia 31.5176
rfoot 16.2885 42.0267
rtoes 8.18566
lfemur -38.9921 -27.036 -0.496186
ltibia 46.323
lfoot -23.8296 -12.0433
ltoes -47.001
1707
root 0.162983 16.3299 0.333807 369.74 348.046 358.175
lowerback 3.76372 2.82082 5.42505
upperback -6.79644 4.17959 -0.854967
thorax -8.86049 1.63753 -4.40147
lowerneck 4.47123 3.38222 -4.00338
upperneck 2.21756 4.3056 7.10012
head -0.335644 2.09298 2.87724
rclavicle -2.77941e-014 -1.04983e-014
rhumerus -63.0838 -20.3569 -4.20524
rradius 43.1808
rwrist -19.2575
rhand -3.81197 49.1787
rfingers 7.12502
rthumb 21.9345 20.4022
lclavicle -2.77941e-014 -1.04983e-014
lhumerus -38.029 -23.1403 99.5436
lradius 143.553
lwrist 14.3917
lhand -4.9459 24.4202
lfingers 7.12502
lthumb 20.8454 53.3204
rfemur -16.9274 7.69147 16.6169
rtibia 30.1572
rfoot 17.9538 43.527
rtoes 5.67588
lfemur -38.1522 -28.087 -0.548347
ltibia 44.8279
lfoot -22.644 -16.0394
ltoes -46.5713
1708
root 0.428434 16.3985 0.537841 370.192 340.403 358.472
lowerback 3.34139 3.42176 5.39351
upperback -6.86907 4.9234 -1.24879
thorax -8.57449 1.99761 -4.84151
lowerneck 4.31573 4.50962 -4.29754
upperneck 2.49299 5.78897 7.43568
head -0.331334 2.83472 3.01165
rclavicle -2.177e-014 5.76476e-015
rhumerus -64.6551 -19.5953 -6.78179
rradius 45.5447
rwrist -20.032
rhand -4.99085 49.0116
rfingers 7.12502
rthumb 20.8022 20.1067
lclavicle -2.177e-014 5.76476e-015
lhumerus -36.994 -25.0994 102.656
lradius 143.831
lwrist 15.1422
lhand -1.17289 23.1342
lfingers 7.12502
lthumb 24.4665 51.5917
rfemur -17.2982 8.79066 14.3951
rtibia 28.8981
rfoot 18.0017 44.2786
rtoes 3.27373
lfemur -36.6837 -28.1005 -1.73034
ltibia 43.6437
lfoot -18.9195 -19.7339
ltoes -40.7629
1709
root 0.700006 16.4607 0.761293 370.57 332.74 358.471
lowerback 3.28442 3.9625 5.75572
upperback -7.04665 5.64988 -1.5464
thorax -8.59036 2.31047 -5.42332
lowerneck 3.90031 5.6265 -4.24855
upperneck 3.13361 7.26209 7.42316
head -0.144927 3.58385 2.97762
rclavicle 1.38559e-014 1.40143e-014
rhumerus -65.6194 -18.6174 -9.83303
rradius 47.5263
rwrist -21.2131
rhand -4.14072 50.9548
rfingers 7.12502
rthumb 21.6188 22.1416
lclavicle 1.38559e-014 1.40143e-014
lhumerus -36.3293 -27.2981 105.489
lradius 144.351
lwrist 15.689
lhand -0.270354 23.5369
lfingers 7.12502
lthumb 25.3314 51.8746
rfemur -17.7698 10.1813 12.4657
rtibia 27.954
rfoot 15.1547 44.0283
rtoes -3.82296
lfemur -34.7353 -27.6787 -3.27245
ltibia 42.6214
lfoot -15.5526 -22.3159
ltoes -35.7461
1710
root 0.944091 16.5124 0.994825 370.967 324.846 358.484
lowerback 3.0835 4.53288 5.82249
upperback -7.20915 6.37987 -1.87061
thorax -8.51237 2.64916 -5.85013
lowerneck 3.53668 6.77309 -4.07281
upperneck 3.61908 8.78413 7.50864
head -0.0174382 4.35622 2.95344
rclavicle -3.31722e-014 -4.96962e-016
rhumerus -66.0147 -17.096 -14.0776
rradius 49.0614
rwrist -24.085
rhand -4.03787 51.0922
rfingers 7.12502
rthumb 21.7176 22.2904
lclavicle -3.31722e-014 -4.96962e-016
lhumerus -36.1903 -29.6854 108.907
lradius 144.822
lwrist 17.2473
lhand -2.98743 24.007
lfingers 7.12502
lthumb 22.726 52.6887
rfemur -18.6893 12.489 10.4502
rtibia 27.4011
rfoot 10.2927 42.0849
rtoes -14.6811
lfemur -32.214 -26.5738 -5.1776
ltibia 41.6845
lfoot -10.7611 -22.2403
ltoes -20.2672
1711
root 1.1811 16.5679 1.23633 371.506 316.911 358.171
lowerback 2.95569 5.04048 6.33242
upperback -7.31949 7.05318 -2.31917
thorax -8.35696 2.93095 -6.64649
lowerneck 3.37981 7.96364 -3.72121
upperneck 3.64534 10.3853 7.73491
head -0.0725899 5.16174 2.92495
rclavicle -6.84565e-015 1.76918e-014
rhumerus -66.8934 -16.8879 -17.6375
rradius 50.8957
rwrist -24.601
rhand -5.03339 50.7193
rfingers 7.12502
rthumb 20.7613 21.8099
lclavicle -6.84565e-015 1.76918e-014
lhumerus -35.8493 -31.9017 110.999
lradius 145.032
lwrist 19.5426
lhand -3.24718 24.4949
lfingers 7.12502
lthumb 22.4767 53.2068
rfemur -19.558 13.7229 9.2744
rtibia 27.2269
rfoot 2.16032 39.7603
rtoes -29.8707
lfemur -29.6913 -24.7117 -7.22212
ltibia 41.1043
lfoot -9.27603 -22.0058
ltoes -14.9089
